<svg width="24" height="24" viewBox="0 0 24 24" fill="none" xmlns="http://www.w3.org/2000/svg">
<path d="M5.708 19H8.5C8.642 19 8.76067 19.048 8.856 19.144C8.95134 19.24 8.99934 19.359 9 19.501C9.00067 19.643 8.95267 19.7617 8.856 19.857C8.75934 19.9523 8.64067 20 8.5 20H4.808C4.57934 20 4.38734 19.9227 4.232 19.768C4.07667 19.6133 3.99934 19.4213 4 19.192V15.5C4 15.358 4.048 15.2393 4.144 15.144C4.24 15.0487 4.359 15.0007 4.501 15C4.643 14.9993 4.76167 15.0473 4.857 15.144C4.95234 15.2407 5 15.3593 5 15.5V18.292L8.246 15.046C8.33934 14.9527 8.454 14.9027 8.59 14.896C8.726 14.8893 8.84734 14.9393 8.954 15.046C9.06067 15.1527 9.114 15.2707 9.114 15.4C9.114 15.5293 9.06067 15.6473 8.954 15.754L5.708 19ZM18.292 19L15.046 15.754C14.9527 15.6607 14.9027 15.546 14.896 15.41C14.8893 15.274 14.9393 15.1527 15.046 15.046C15.1527 14.9393 15.2707 14.886 15.4 14.886C15.5293 14.886 15.6473 14.9393 15.754 15.046L19 18.292V15.5C19 15.358 19.048 15.2393 19.144 15.144C19.24 15.0487 19.359 15.0007 19.501 15C19.643 14.9993 19.7617 15.0473 19.857 15.144C19.9523 15.2407 20 15.3593 20 15.5V19.192C20 19.4213 19.9227 19.6133 19.768 19.768C19.6133 19.9227 19.4213 20 19.192 20H15.5C15.358 20 15.2393 19.952 15.144 19.856C15.0487 19.76 15.0007 19.641 15 19.499C14.9993 19.357 15.0473 19.2383 15.144 19.143C15.2407 19.0477 15.3593 19 15.5 19H18.292ZM5 5.708V8.5C5 8.642 4.952 8.76067 4.856 8.856C4.76 8.95134 4.641 8.99934 4.499 9C4.357 9.00067 4.23834 8.95267 4.143 8.856C4.04767 8.75934 4 8.64067 4 8.5V4.808C4 4.57934 4.07734 4.38734 4.232 4.232C4.38667 4.07667 4.57867 3.99934 4.808 4H8.5C8.642 4 8.76067 4.048 8.856 4.144C8.95134 4.24 8.99934 4.359 9 4.501C9.00067 4.643 8.95267 4.76167 8.856 4.857C8.75934 4.95234 8.64067 5 8.5 5H5.708L8.954 8.246C9.04734 8.33934 9.09734 8.454 9.104 8.59C9.11067 8.726 9.06067 8.84734 8.954 8.954C8.84734 9.06067 8.72934 9.114 8.6 9.114C8.47067 9.114 8.35267 9.06067 8.246 8.954L5 5.708ZM19 5.708L15.754 8.954C15.6607 9.04734 15.546 9.09734 15.41 9.104C15.274 9.11067 15.1527 9.06067 15.046 8.954C14.9393 8.84734 14.886 8.72934 14.886 8.6C14.886 8.47067 14.9393 8.35267 15.046 8.246L18.292 5H15.5C15.358 5 15.2393 4.952 15.144 4.856C15.0487 4.76 15.0007 4.641 15 4.499C14.9993 4.357 15.0473 4.23834 15.144 4.143C15.2407 4.04767 15.3593 4 15.5 4H19.192C19.4213 4 19.6133 4.07734 19.768 4.232C19.9227 4.38667 20 4.57867 20 4.808V8.5C20 8.642 19.952 8.76067 19.856 8.856C19.76 8.95134 19.641 8.99934 19.499 9C19.357 9.00067 19.2383 8.95267 19.143 8.856C19.0477 8.75934 19 8.64067 19 8.5V5.708Z" fill="black"/>
</svg>
